{
  "accessors": [
    {
      "bufferView": 2,
      "componentType": 5126,
      "count": 37423,
      "max": [
        11.831391334533691,
        0.05377800017595291,
        0.9259539842605591
      ],
      "min": [
        -13.435046195983887,
        -18.103975296020508,
        -8.098438262939453
      ],
      "type": "VEC3"
    },
    {
      "bufferView": 2,
      "byteOffset": 449076,
      "componentType": 5126,
      "count": 37423,
      "max": [
        0.9999438524246216,
        0.9998118877410889,
        0.9999984502792358
      ],
      "min": [
        -0.9997379779815674,
        -0.9998160004615784,
        -0.9999813437461853
      ],
      "type": "VEC3"
    },
    {
      "bufferView": 1,
      "componentType": 5126,
      "count": 37423,
      "max": [
        0.9992679953575134,
        0.9992610216140747
      ],
      "min": [
        0.0007319999858736992,
        0.0007389999809674919
      ],
      "type": "VEC2"
    },
    {
      "bufferView": 0,
      "componentType": 5125,
      "count": 188373,
      "type": "SCALAR"
    }
  ],
  "asset": {
    "extras": {
      "author": "Carriage Way Cemetery (https://sketchfab.com/knowmatt)",
      "license": "CC-BY-4.0 (http://creativecommons.org/licenses/by/4.0/)",
      "source": "https://sketchfab.com/3d-models/goat-corpse-photogrammetry-scan-b38a95e9b5f74f9d947de0bb8b4949d6",
      "title": "Goat-corpse-photogrammetry scan"
    },
    "generator": "Sketchfab-12.68.0",
    "version": "2.0"
  },
  "bufferViews": [
    {
      "buffer": 0,
      "byteLength": 753492,
      "name": "floatBufferViews",
      "target": 34963
    },
    {
      "buffer": 0,
      "byteLength": 299384,
      "byteOffset": 753492,
      "byteStride": 8,
      "name": "floatBufferViews",
      "target": 34962
    },
    {
      "buffer": 0,
      "byteLength": 898152,
      "byteOffset": 1052876,
      "byteStride": 12,
      "name": "floatBufferViews",
      "target": 34962
    }
  ],
  "buffers": [
    {
      "byteLength": 1951028,
      "uri": "scene.bin"
    }
  ],
  "images": [
    {
      "uri": "textures/Material_0_baseColor.jpeg"
    }
  ],
  "materials": [
    {
      "doubleSided": true,
      "name": "Material_0",
      "pbrMetallicRoughness": {
        "baseColorTexture": {
          "index": 0
        },
        "metallicFactor": 0.0
      }
    }
  ],
  "meshes": [
    {
      "name": "Object_0",
      "primitives": [
        {
          "attributes": {
            "NORMAL": 1,
            "POSITION": 0,
            "TEXCOORD_0": 2
          },
          "indices": 3,
          "material": 0,
          "mode": 4
        }
      ]
    }
  ],
  "nodes": [
    {
      "children": [
        1
      ],
      "matrix": [
        0.012632262893021107,
        -3.3304918587010363e-16,
        0.9999201893806458,
        0.0,
        3.3306690738754696e-16,
        -1.0,
        -4.440892098500626e-16,
        0.0,
        0.9999201893806458,
        4.468941356734526e-16,
        -0.012632262893021107,
        0.0,
        2.794304370880127,
        -12.61136054992676,
        9.781531333923336,
        1.0
      ],
      "name": "Sketchfab_model"
    },
    {
      "children": [
        2
      ],
      "name": "goat.obj.cleaner.materialmerger.gles"
    },
    {
      "mesh": 0,
      "name": "Object_2"
    }
  ],
  "samplers": [
    {
      "magFilter": 9729,
      "minFilter": 9987,
      "wrapS": 10497,
      "wrapT": 10497
    }
  ],
  "scene": 0,
  "scenes": [
    {
      "name": "Sketchfab_Scene",
      "nodes": [
        0
      ]
    }
  ],
  "textures": [
    {
      "sampler": 0,
      "source": 0
    }
  ]
}
